<?xml version="1.0" encoding="UTF-8" standalone="no"?>
<!-- Created with Inkscape (http://www.inkscape.org/) -->

<svg
   xmlns:dc="http://purl.org/dc/elements/1.1/"
   xmlns:cc="http://creativecommons.org/ns#"
   xmlns:rdf="http://www.w3.org/1999/02/22-rdf-syntax-ns#"
   xmlns:svg="http://www.w3.org/2000/svg"
   xmlns="http://www.w3.org/2000/svg"
   xmlns:sodipodi="http://sodipodi.sourceforge.net/DTD/sodipodi-0.dtd"
   xmlns:inkscape="http://www.inkscape.org/namespaces/inkscape"
   width="32"
   height="32"
   viewBox="0 0 8.4666667 8.4666667"
   version="1.1"
   id="svg128"
   inkscape:version="0.92.5 (2060ec1f9f, 2020-04-08)"
   sodipodi:docname="logo.svg"
   inkscape:export-filename="/home/jencek/qgis3_profiles/profiles/default/python/plugins/qgis-world-from-space-plugin/icon.png"
   inkscape:export-xdpi="96.000008"
   inkscape:export-ydpi="96.000008">
  <defs
     id="defs122" />
  <sodipodi:namedview
     id="base"
     pagecolor="#ffffff"
     bordercolor="#666666"
     borderopacity="1.0"
     inkscape:pageopacity="0.0"
     inkscape:pageshadow="2"
     inkscape:zoom="5.6"
     inkscape:cx="66.959344"
     inkscape:cy="-15.234025"
     inkscape:document-units="mm"
     inkscape:current-layer="layer1"
     showgrid="false"
     units="px"
     inkscape:window-width="1920"
     inkscape:window-height="1031"
     inkscape:window-x="0"
     inkscape:window-y="25"
     inkscape:window-maximized="1" />
  <metadata
     id="metadata125">
    <rdf:RDF>
      <cc:Work
         rdf:about="">
        <dc:format>image/svg+xml</dc:format>
        <dc:type
           rdf:resource="http://purl.org/dc/dcmitype/StillImage" />
        <dc:title></dc:title>
      </cc:Work>
    </rdf:RDF>
  </metadata>
  <g
     inkscape:label="Layer 1"
     inkscape:groupmode="layer"
     id="layer1"
     transform="translate(0,-288.53333)">
    <g
       id="g182"
       transform="matrix(0.12650855,0,0,0.12650855,-0.45204674,283.05056)">
      <path
         d="m 14.041076,77.688087 c 1.035844,0.05107 1.924844,-0.74692 1.976173,-1.787526 0.01191,-0.216429 0.02567,-0.431271 0.0426,-0.646377 0.789252,-9.984846 8.23251,-18.202804 18.102527,-19.983979 3.09483,-0.56224 6.195482,-0.462756 9.219141,0.28575 1.014148,0.249502 2.030941,-0.368565 2.281502,-1.376892 0.249766,-1.009914 -0.366448,-2.032264 -1.377157,-2.28256 -3.198547,-0.792163 -6.47012,-0.959908 -9.740635,-0.502973 -0.350837,0.04842 -0.702997,0.103981 -1.053041,0.166688 -11.551444,2.087297 -20.266289,11.707812 -21.189421,23.393928 -0.02011,0.253471 -0.03651,0.505619 -0.04842,0.758296 -0.05292,1.037961 0.747184,1.922199 1.786732,1.975645 z"
         id="path28"
         inkscape:connector-curvature="0"
         style="fill:#5cd38c;stroke-width:0.26458332" />
      <path
         d="m 53.900554,65.79189 c 4.710906,0.197908 13.165667,-4.62915 12.368477,-9.990137 -5.012531,0.0426 -11.953875,5.083439 -12.368477,9.990137 z"
         id="path30"
         inkscape:connector-curvature="0"
         style="fill:#5cd38c;stroke-width:0.26458332" />
      <path
         d="m 48.571846,68.754165 c 5.946246,-4.128558 7.868973,-8.881533 5.988579,-14.225587 -2.25081,1.459706 -3.922183,3.003285 -5.044281,4.632325 1.081881,3.414712 0.195262,6.523566 -0.944298,9.593262 z"
         id="path32"
         inkscape:connector-curvature="0"
         style="fill:#5cd38c;stroke-width:0.26458332" />
      <path
         d="m 49.465344,69.974953 c 3.285331,-0.837936 6.352646,-0.25744 9.209352,1.696508 1.921933,-0.776552 3.849952,-1.572419 5.939102,-3.412331 -4.226719,-3.583252 -10.534915,-3.026834 -15.148454,1.715823 z"
         id="path34"
         inkscape:connector-curvature="0"
         style="fill:#5cd38c;stroke-width:0.26458332" />
      <path
         d="m 42.77456,73.000198 c 5.628482,-4.088606 7.575021,-8.748447 5.68325,-14.002808 -7.555177,3.792008 -3.417622,9.391121 -5.68325,14.002808 z"
         id="path36"
         inkscape:connector-curvature="0"
         style="fill:#5cd38c;stroke-width:0.26458332" />
      <path
         d="m 58.510919,72.729001 c -4.149461,-3.504407 -10.334096,-3.144309 -14.842331,1.490662 3.108325,-0.267229 6.175375,-0.280458 8.902964,1.916642 1.94654,-0.926042 3.846513,-1.547019 5.939367,-3.407304 z"
         id="path38"
         inkscape:connector-curvature="0"
         style="fill:#5cd38c;stroke-width:0.26458332" />
      <path
         d="m 42.356783,63.463557 c -7.153804,2.935023 -3.400954,9.707033 -5.989108,14.226382 5.948892,-4.129088 7.740915,-8.902966 5.989108,-14.226382 z"
         id="path40"
         inkscape:connector-curvature="0"
         style="fill:#5cd38c;stroke-width:0.26458332" />
      <path
         d="m 52.40751,77.195961 c -4.250531,-3.428206 -10.514277,-3.149335 -15.147131,1.713972 5.303838,-2.217739 9.178396,4.800336 15.147131,-1.713972 z"
         id="path42"
         inkscape:connector-curvature="0"
         style="fill:#5cd38c;stroke-width:0.26458332" />
      <path
         d="m 36.25311,67.931311 c -1.98411,0.630237 -3.470274,2.842948 -5.349874,4.855369 1.51421,3.3909 -0.0026,6.312959 -0.638175,9.37022 5.876395,-4.140994 7.523956,-8.936833 5.988049,-14.225589 z"
         id="path44"
         inkscape:connector-curvature="0"
         style="fill:#5cd38c;stroke-width:0.26458332" />
      <path
         d="M 45.859338,81.052529 C 41.567796,79.046194 35.63716,78.34981 31.158294,83.378216 35.880048,81.49306 42.090877,88.408475 45.859338,81.052529 Z"
         id="path46"
         inkscape:connector-curvature="0"
         style="fill:#5cd38c;stroke-width:0.26458332" />
      <path
         d="m 33.957851,89.763671 c 1.569243,-0.984515 5.798078,-1.883305 5.799401,-4.244182 -4.336521,-1.71397 -10.210006,-2.789502 -14.700514,2.32463 3.144308,-0.497417 6.152621,-0.129382 8.901113,1.919552 z"
         id="path48"
         inkscape:connector-curvature="0"
         style="fill:#5cd38c;stroke-width:0.26458332" />
      <path
         d="m 29.845432,72.622109 c -2.008717,0.811212 -3.631671,2.947987 -5.046133,4.631002 1.388533,3.460487 0.0717,6.505047 -0.941388,9.594587 5.941219,-4.129617 7.93459,-8.873332 5.987521,-14.225589 z"
         id="path50"
         inkscape:connector-curvature="0"
         style="fill:#5cd38c;stroke-width:0.26458332" />
      <path
         d="m 23.743346,77.090392 c -6.275387,4.16957 -7.93988,9.053249 -6.29523,14.449691 6.582833,-4.123267 7.599626,-9.106694 6.29523,-14.449691 z"
         id="path52"
         inkscape:connector-curvature="0"
         style="fill:#5cd38c;stroke-width:0.26458332" />
      <path
         d="M 33.34878,90.208435 C 28.885788,87.980908 22.736342,87.927462 18.119628,92.454748 22.231517,95.683723 29.713669,95.54561 33.34878,90.208435 Z"
         id="path54"
         inkscape:connector-curvature="0"
         style="fill:#5cd38c;stroke-width:0.26458332" />
      <path
         d="m 16.01328,92.493377 -8.0594727,6.385189 c -0.2193396,0.173832 -0.2563813,0.491861 -0.08255,0.710407 0.099219,0.126471 0.2468562,0.191558 0.3966104,0.191558 0.1100667,0 0.2206625,-0.03545 0.3135312,-0.109008 l 8.0600021,-6.38519 c 0.21881,-0.173831 0.255852,-0.49186 0.08255,-0.710935 -0.173302,-0.219604 -0.49186,-0.255852 -0.710671,-0.08202 z"
         id="path56"
         inkscape:connector-curvature="0"
         style="fill:#5cd38c;stroke-width:0.26458332" />
      <path
         d="m 62.141002,76.347442 c -1.035314,-0.05133 -1.92405,0.747184 -1.976173,1.787791 -0.01138,0.215371 -0.02513,0.429948 -0.0426,0.645583 -0.788723,9.985111 -8.231981,18.201746 -18.101998,19.983715 -3.094831,0.563563 -6.195748,0.463285 -9.219141,-0.284427 -1.014148,-0.249767 -2.030941,0.368565 -2.281502,1.376892 -0.250031,1.009914 0.366448,2.032004 1.377156,2.282034 3.198548,0.79216 6.470121,0.96017 9.740635,0.50323 0.350573,-0.0492 0.702734,-0.10451 1.052777,-0.16668 11.551444,-2.0873 20.266555,-11.707286 21.189421,-23.394197 0.0209,-0.253471 0.03598,-0.504825 0.04842,-0.757502 0.05345,-1.038491 -0.746654,-1.922464 -1.786996,-1.976439 z"
         id="path58"
         inkscape:connector-curvature="0"
         style="fill:#5cd38c;stroke-width:0.26458332" />
    </g>
  </g>
</svg>
